# xmcd CD database file
#
# Track frame offsets:
#	150
#	12223
#	25610
#	39414
#	53736
#	68300
#	81007
#	93354
#	107428
#	120724
#	135331
#	147649
#	161004
#	174383
#	189379
#	203248
#	214091
#	225414
#	236865
#	248257
#	261809
#	276930
#	289738
#	302858
#	314097
#	326171
#	339459
#
# Disc length: 4714 seconds
#
# Revision: 0
# Processed by: cddbd v1.5PL3 Copyright (c) Steve Scherf et al.
# Submitted via: CDex 1.51
#
DISCID=7612681b
DTITLE=Hoagy Carmichael - First of the Singer-Songwriters, Key Tracks #4
DYEAR=2004
DGENRE=Jazz
TTITLE0=The Casa Loma Orchestra  - Thanksgivin'
TTITLE1=Bennie Moten and His Kansas City Orchestra  - New Orleans
TTITLE2=The Casa Loma Orchestra  - New Orleans
TTITLE3=Hoagy Carmichael and Ella Logan  - Two Sleepy People
TTITLE4=Hoagy Carmichael  - New Orleans
TTITLE5=Hoagy Carmichael  - Hong Kong Blues
TTITLE6=Hoagy Carmichael  - Riverboat Shuffle
TTITLE7=Fats Waller and His Rhythm  - Two Sleepy People
TTITLE8=Ethel Waters  - Bread and Gravy
TTITLE9=Jack Jenney  - Star Dust
TTITLE10=Maxine Sullivan  - Skylark
TTITLE11=Hoagy Carmichael  - No More Toujours L'Amour
TTITLE12=Matty Matlock  - Vine Street Parade
TTITLE13=Ray Hendricks  - World Of No Goodbyes, A
TTITLE14=Hoagy Carmichael  - Sweet Lorraine
TTITLE15=Hoagy Carmichael  - Whale Song, The
TTITLE16=Anita Boyer  - How Little We Know
TTITLE17=Hoagy Carmichael  - Billy-A-Dick
TTITLE18=Hoagy Carmichael  - Hong Kong Blues
TTITLE19=Hoagy Carmichael  - Baltimore Oriole
TTITLE20=Hoagy Carmichael  - Star Dust
TTITLE21=Hoagy Carmichael  - Memphis In June
TTITLE22=Hoagy Carmichael  - Doctor, Lawyer, Indian Chief
TTITLE23=Hoagy Carmichael  - Ginger and Spice
TTITLE24=Hoagy Carmichael  - Ole Buttermilk Sky
TTITLE25=Hoagy Carmichael  - Walk It Off
TTITLE26=Hoagy Carmichael EXTD=YEAR: 2004 - It Ain't Gonna Be Like That
EXTD=E26=It Ain't Gonna Be Like That - Hoagy Carmichael EXTD=YEAR: 2004
EXTT0=
EXTT1=
EXTT2=
EXTT3=
EXTT4=
EXTT5=
EXTT6=
EXTT7=
EXTT8=
EXTT9=
EXTT10=
EXTT11=
EXTT12=
EXTT13=
EXTT14=
EXTT15=
EXTT16=
EXTT17=
EXTT18=
EXTT19=
EXTT20=
EXTT21=
EXTT22=
EXTT23=
EXTT24=
EXTT25=
EXTT26=
PLAYORDER=
